<?xml version="1.0" encoding="utf-8"?>
<!-- Generator: Adobe Illustrator 26.3.1, SVG Export Plug-In . SVG Version: 6.00 Build 0)  -->
<svg version="1.1" id="Layer_1" xmlns="http://www.w3.org/2000/svg" xmlns:xlink="http://www.w3.org/1999/xlink" x="0px" y="0px"
	 width="60px" height="60px" viewBox="0 0 60 60" style="enable-background:new 0 0 60 60;" xml:space="preserve">
<style type="text/css">
	.st0{fill:#FFFFFF;}
</style>
<g>
	<g>
		<path class="st0" d="M29.8,11.1c-1,0-1.8-0.8-1.8-1.8V3.8c0-1,0.8-1.8,1.8-1.8c1,0,1.8,0.8,1.8,1.8v5.6
			C31.6,10.3,30.7,11.1,29.8,11.1z"/>
	</g>
	<g>
		<path class="st0" d="M19.5,14c-0.7,0-1.2-0.3-1.6-0.9l-2.8-4.9c-0.5-0.8-0.2-2,0.7-2.4c0.8-0.5,2-0.2,2.4,0.7l2.8,4.9
			c0.5,0.8,0.2,2-0.7,2.4C20.1,13.9,19.8,14,19.5,14z"/>
	</g>
	<g>
		<path class="st0" d="M12,21.7c-0.3,0-0.7-0.1-0.9-0.3l-4.9-2.8c-0.8-0.5-1.1-1.6-0.7-2.4C6,15.3,7.1,15.1,8,15.5l4.9,2.8
			c0.8,0.5,1.1,1.6,0.7,2.4C13.2,21.3,12.6,21.7,12,21.7z"/>
	</g>
	<g>
		<path class="st0" d="M9.4,32.1H3.8c-1,0-1.8-0.8-1.8-1.8c0-1,0.8-1.8,1.8-1.8h5.6c1,0,1.8,0.8,1.8,1.8S10.3,32.1,9.4,32.1z"/>
	</g>
	<g>
		<path class="st0" d="M7.4,45.1c-0.7,0-1.2-0.3-1.6-0.9c-0.5-0.8-0.2-2,0.7-2.4l4.9-2.8c0.8-0.5,2-0.2,2.4,0.7
			c0.5,0.8,0.2,2-0.7,2.4l-4.9,2.8C8.1,45,7.7,45.1,7.4,45.1z"/>
	</g>
	<g>
		<path class="st0" d="M17.1,54.6c-0.3,0-0.7-0.1-0.9-0.3c-0.8-0.5-1.1-1.6-0.7-2.4l2.8-4.9c0.5-0.8,1.6-1.1,2.4-0.7
			s1.1,1.6,0.7,2.4l-2.8,4.9C18.3,54.3,17.7,54.6,17.1,54.6z"/>
	</g>
	<g>
		<path class="st0" d="M30.2,58c-1,0-1.8-0.8-1.8-1.8v-5.6c0-1,0.8-1.8,1.8-1.8c1,0,1.8,0.8,1.8,1.8v5.6C32.1,57.2,31.2,58,30.2,58z
			"/>
	</g>
	<g>
		<path class="st0" d="M43.3,54.4c-0.7,0-1.2-0.3-1.6-0.9l-2.8-4.9c-0.5-0.8-0.2-2,0.7-2.4c0.8-0.5,2-0.2,2.4,0.7l2.8,4.9
			c0.5,0.8,0.2,2-0.7,2.4C43.9,54.3,43.6,54.4,43.3,54.4z"/>
	</g>
	<g>
		<path class="st0" d="M52.8,44.7c-0.3,0-0.7-0.1-0.9-0.3L47,41.7c-0.8-0.5-1.1-1.6-0.7-2.4c0.5-0.8,1.6-1.1,2.4-0.7l4.9,2.8
			c0.8,0.5,1.1,1.6,0.7,2.4C54,44.4,53.4,44.7,52.8,44.7z"/>
	</g>
	<g>
		<path class="st0" d="M56.2,31.6h-5.6c-1,0-1.8-0.8-1.8-1.8c0-1,0.8-1.8,1.8-1.8h5.6c1,0,1.8,0.8,1.8,1.8S57.2,31.6,56.2,31.6z"/>
	</g>
	<g>
		<path class="st0" d="M47.7,21.3c-0.7,0-1.2-0.3-1.6-0.9c-0.5-0.8-0.2-2,0.7-2.4l4.9-2.8c0.8-0.5,2-0.2,2.4,0.7
			c0.5,0.8,0.2,2-0.7,2.4L48.6,21C48.4,21.2,48.1,21.3,47.7,21.3z"/>
	</g>
	<g>
		<path class="st0" d="M40.1,13.9c-0.3,0-0.7-0.1-0.9-0.3c-0.8-0.5-1.1-1.6-0.7-2.4l2.8-4.9c0.5-0.8,1.6-1.1,2.4-0.7
			c0.8,0.5,1.1,1.6,0.7,2.4l-2.8,4.9C41.4,13.5,40.7,13.9,40.1,13.9z"/>
	</g>
	<g>
		<path class="st0" d="M30,44.9c-8.2,0-14.9-6.7-14.9-14.9S21.8,15.1,30,15.1S44.9,21.8,44.9,30S38.2,44.9,30,44.9z M30,18.7
			c-6.3,0-11.3,5-11.3,11.3s5,11.3,11.3,11.3s11.3-5,11.3-11.3S36.3,18.7,30,18.7z"/>
	</g>
</g>
</svg>
