<?xml version="1.0" encoding="utf-8"?>
<!-- Generator: Adobe Illustrator 26.3.1, SVG Export Plug-In . SVG Version: 6.00 Build 0)  -->
<svg version="1.1" id="Layer_1" xmlns="http://www.w3.org/2000/svg" xmlns:xlink="http://www.w3.org/1999/xlink" x="0px" y="0px"
	 width="60px" height="60px" viewBox="0 0 60 60" style="enable-background:new 0 0 60 60;" xml:space="preserve">
<style type="text/css">
	.st0{fill:#FFFFFF;}
</style>
<g>
	<g>
		<path class="st0" d="M29.8,9.8c-1.1,0-1.9-0.9-1.9-1.9v-6c0-1.1,0.9-1.9,1.9-1.9c1.1,0,1.9,0.9,1.9,1.9v6
			C31.7,8.9,30.8,9.8,29.8,9.8z"/>
	</g>
	<g>
		<path class="st0" d="M18.7,12.9c-0.7,0-1.3-0.3-1.7-1l-3-5.2c-0.5-0.9-0.2-2.1,0.7-2.6c0.9-0.5,2.1-0.2,2.6,0.7l3,5.2
			c0.5,0.9,0.2,2.1-0.7,2.6C19.4,12.8,19.1,12.9,18.7,12.9z"/>
	</g>
	<g>
		<path class="st0" d="M10.7,21.1c-0.3,0-0.7-0.1-1-0.3l-5.2-3c-0.9-0.5-1.2-1.7-0.7-2.6c0.5-0.9,1.7-1.2,2.6-0.7l5.2,3
			c0.9,0.5,1.2,1.7,0.7,2.6C12,20.7,11.4,21.1,10.7,21.1z"/>
	</g>
	<g>
		<path class="st0" d="M7.9,32.2h-6c-1.1,0-1.9-0.9-1.9-1.9c0-1.1,0.9-1.9,1.9-1.9h6c1.1,0,1.9,0.9,1.9,1.9
			C9.8,31.3,8.9,32.2,7.9,32.2z"/>
	</g>
	<g>
		<path class="st0" d="M5.8,46.2c-0.7,0-1.3-0.3-1.7-1c-0.5-0.9-0.2-2.1,0.7-2.6l5.2-3c0.9-0.5,2.1-0.2,2.6,0.7
			c0.5,0.9,0.2,2.1-0.7,2.6l-5.2,3C6.5,46.1,6.1,46.2,5.8,46.2z"/>
	</g>
	<g>
		<path class="st0" d="M16.2,56.4c-0.3,0-0.7-0.1-1-0.3c-0.9-0.5-1.2-1.7-0.7-2.6l3-5.2c0.5-0.9,1.7-1.2,2.6-0.7
			c0.9,0.5,1.2,1.7,0.7,2.6l-3,5.2C17.5,56,16.8,56.4,16.2,56.4z"/>
	</g>
	<g>
		<path class="st0" d="M30.2,60c-1.1,0-1.9-0.9-1.9-1.9v-6c0-1.1,0.9-1.9,1.9-1.9c1.1,0,1.9,0.9,1.9,1.9v6
			C32.2,59.1,31.3,60,30.2,60z"/>
	</g>
	<g>
		<path class="st0" d="M44.2,56.1c-0.7,0-1.3-0.3-1.7-1l-3-5.2c-0.5-0.9-0.2-2.1,0.7-2.6c0.9-0.5,2.1-0.2,2.6,0.7l3,5.2
			c0.5,0.9,0.2,2.1-0.7,2.6C44.9,56,44.6,56.1,44.2,56.1z"/>
	</g>
	<g>
		<path class="st0" d="M54.4,45.8c-0.3,0-0.7-0.1-1-0.3l-5.2-3c-0.9-0.5-1.2-1.7-0.7-2.6c0.5-0.9,1.7-1.2,2.6-0.7l5.2,3
			c0.9,0.5,1.2,1.7,0.7,2.6C55.7,45.4,55.1,45.8,54.4,45.8z"/>
	</g>
	<g>
		<path class="st0" d="M58.1,31.7h-6c-1.1,0-1.9-0.9-1.9-1.9c0-1.1,0.9-1.9,1.9-1.9h6c1.1,0,1.9,0.9,1.9,1.9
			C60,30.8,59.1,31.7,58.1,31.7z"/>
	</g>
	<g>
		<path class="st0" d="M49,20.7c-0.7,0-1.3-0.3-1.7-1c-0.5-0.9-0.2-2.1,0.7-2.6l5.2-3c0.9-0.5,2.1-0.2,2.6,0.7
			c0.5,0.9,0.2,2.1-0.7,2.6l-5.2,3C49.7,20.6,49.4,20.7,49,20.7z"/>
	</g>
	<g>
		<path class="st0" d="M40.8,12.7c-0.3,0-0.7-0.1-1-0.3c-0.9-0.5-1.2-1.7-0.7-2.6l3-5.2c0.5-0.9,1.7-1.2,2.6-0.7
			c0.9,0.5,1.2,1.7,0.7,2.6l-3,5.2C42.2,12.3,41.5,12.7,40.8,12.7z"/>
	</g>
	<g>
		<path class="st0" d="M30,46c-8.8,0-16-7.2-16-16c0-8.8,7.2-16,16-16s16,7.2,16,16C46,38.8,38.8,46,30,46z M30,17.9
			c-6.7,0-12.1,5.4-12.1,12.1c0,6.7,5.4,12.1,12.1,12.1S42.1,36.7,42.1,30C42.1,23.3,36.7,17.9,30,17.9z"/>
	</g>
</g>
</svg>
