<?xml version="1.0" encoding="utf-8"?>
<!-- Generator: Adobe Illustrator 26.3.1, SVG Export Plug-In . SVG Version: 6.00 Build 0)  -->
<svg version="1.1" id="Layer_1" xmlns="http://www.w3.org/2000/svg" xmlns:xlink="http://www.w3.org/1999/xlink" x="0px" y="0px"
	 width="60px" height="60px" viewBox="0 0 60 60" style="enable-background:new 0 0 60 60;" xml:space="preserve">
<style type="text/css">
	.st0{fill:#FFFFFF;}
</style>
<g>
	<path class="st0" d="M24.5,26.1c3.9,0,7.4,2.7,8.4,6.5l0.6,2.3l2.4,0c3.9,0.1,7,3.3,7,7.2c0,0.7-0.1,1.5-0.3,2.2l-0.8,2.6l2.5,1.2
		c1.6,0.8,2.5,2.3,2.5,4.1c0,2.5-2,4.6-4.6,4.6H13.6c-5.7,0-10.4-4.7-10.4-10.4c0-5.5,4.3-10,9.8-10.4l2.5-0.2l0.4-2.5
		C16.7,29.1,20.3,26.1,24.5,26.1 M24.5,22.9c-5.9,0-10.8,4.3-11.8,9.9C5.6,33.2,0,39.1,0,46.4C0,53.9,6.1,60,13.6,60
		c7,0,24.4,0,28.7,0c4.3,0,7.8-3.5,7.8-7.8c0-3-1.8-5.7-4.3-7c0.3-1,0.5-2,0.5-3.1c0-5.7-4.6-10.3-10.2-10.4
		C34.7,26.7,30.1,22.9,24.5,22.9L24.5,22.9z"/>
	<g>
		<g>
			<path class="st0" d="M45.5,31.1c-0.2,0-0.4,0-0.6-0.1c-0.8-0.3-1.2-1.3-0.9-2.1c0.5-1.2,0.7-2.5,0.7-3.8
				c0-5.6-4.6-10.2-10.2-10.2c-3,0-5.9,1.4-7.9,3.7c-0.6,0.7-1.6,0.8-2.3,0.2c-0.7-0.6-0.8-1.6-0.2-2.3c2.6-3.1,6.3-4.9,10.3-4.9
				c7.4,0,13.4,6,13.4,13.4c0,1.7-0.3,3.4-1,5C46.8,30.8,46.2,31.1,45.5,31.1z"/>
		</g>
		<g>
			<path class="st0" d="M34.5,8.2c-0.9,0-1.6-0.7-1.6-1.6v-5c0-0.9,0.7-1.6,1.6-1.6s1.6,0.7,1.6,1.6v5C36.1,7.5,35.4,8.2,34.5,8.2z"
				/>
		</g>
		<g>
			<path class="st0" d="M25,10.7c-0.6,0-1.1-0.3-1.4-0.8l-2.5-4.3c-0.4-0.8-0.2-1.8,0.6-2.2C22.5,3,23.5,3.2,23.9,4l2.5,4.3
				c0.4,0.8,0.2,1.8-0.6,2.2C25.6,10.7,25.3,10.7,25,10.7z"/>
		</g>
		<g>
			<path class="st0" d="M18.1,17.7c-0.3,0-0.5-0.1-0.8-0.2L13,15c-0.8-0.4-1-1.4-0.6-2.2c0.4-0.8,1.4-1,2.2-0.6l4.3,2.5
				c0.8,0.4,1,1.4,0.6,2.2C19.2,17.4,18.7,17.7,18.1,17.7z"/>
		</g>
		<g>
			<path class="st0" d="M55.2,39.1c-0.3,0-0.5-0.1-0.8-0.2l-4.3-2.5c-0.8-0.4-1-1.4-0.6-2.2c0.4-0.8,1.4-1,2.2-0.6l4.3,2.5
				c0.8,0.4,1,1.4,0.6,2.2C56.3,38.8,55.7,39.1,55.2,39.1z"/>
		</g>
		<g>
			<path class="st0" d="M58.4,27.1h-5c-0.9,0-1.6-0.7-1.6-1.6c0-0.9,0.7-1.6,1.6-1.6h5c0.9,0,1.6,0.7,1.6,1.6
				C60,26.4,59.3,27.1,58.4,27.1z"/>
		</g>
		<g>
			<path class="st0" d="M50.9,17.7c-0.6,0-1.1-0.3-1.4-0.8c-0.4-0.8-0.2-1.8,0.6-2.2l4.3-2.5c0.8-0.4,1.8-0.2,2.2,0.6
				c0.4,0.8,0.2,1.8-0.6,2.2l-4.3,2.5C51.4,17.6,51.2,17.7,50.9,17.7z"/>
		</g>
		<g>
			<path class="st0" d="M44,10.7c-0.3,0-0.5-0.1-0.8-0.2c-0.8-0.4-1-1.4-0.6-2.2L45,4c0.4-0.8,1.4-1,2.2-0.6c0.8,0.4,1,1.4,0.6,2.2
				l-2.5,4.3C45.1,10.4,44.5,10.7,44,10.7z"/>
		</g>
	</g>
</g>
</svg>
