<?xml version="1.0" encoding="utf-8"?>
<!-- Generator: Adobe Illustrator 26.3.1, SVG Export Plug-In . SVG Version: 6.00 Build 0)  -->
<svg version="1.1" id="Layer_1" xmlns="http://www.w3.org/2000/svg" xmlns:xlink="http://www.w3.org/1999/xlink" x="0px" y="0px"
	 width="60px" height="60px" viewBox="0 0 60 60" style="enable-background:new 0 0 60 60;" xml:space="preserve">
<style type="text/css">
	.st0{fill:#FFFFFF;}
</style>
<g>
	<path class="st0" d="M29.3,12.2c4.6,0,8.6,3.1,9.8,7.6l0.7,2.7h2.8c4.6,0.1,8.1,3.9,8.1,8.3c0,0.7-0.1,1.8-0.4,2.5l-0.9,3l2.9,1.4
		c1.9,0.9,2.9,2.7,2.9,4.8c0,2.9-2.3,5.3-5.3,5.3H16.7c-6.6,0-12.1-5.4-12.1-12.1c0-6.3,4.9-11.7,11.3-12.1l2.9-0.2l0.5-2.9
		C20.3,15.6,24.5,12.2,29.3,12.2 M29.3,9.3c-6.6,0-12,4.8-13.2,11.1C8.3,20.8,2,27.4,2,35.5c0,8.4,6.8,15.2,15.2,15.2
		c7.8,0,27.3,0,32.1,0S58,46.8,58,42c0-3.4-2.1-6.3-4.8-7.8c0.4-1.1,0.6-2.2,0.6-3.5c0-6.3-5.1-11.5-11.4-11.7
		C40.8,13.5,35.6,9.3,29.3,9.3L29.3,9.3z"/>
</g>
</svg>
