<?xml version="1.0" encoding="utf-8"?>
<!-- Generator: Adobe Illustrator 26.3.1, SVG Export Plug-In . SVG Version: 6.00 Build 0)  -->
<svg version="1.1" id="Layer_1" xmlns="http://www.w3.org/2000/svg" xmlns:xlink="http://www.w3.org/1999/xlink" x="0px" y="0px"
	 width="60px" height="60px" viewBox="0 0 60 60" style="enable-background:new 0 0 60 60;" xml:space="preserve">
<style type="text/css">
	.st0{fill:#FFFFFF;}
</style>
<g>
	<path class="st0" d="M29.3,10.9c4.9,0,9.2,3.3,10.5,8.1l0.7,2.9h3c4.9,0.1,8.7,4.2,8.7,8.9c0,0.8-0.1,1.9-0.4,2.7l-1,3.2l3.1,1.5
		c2,1,3.1,2.9,3.1,5.1c0,3.1-2.5,5.7-5.7,5.7H15.8c-7.1,0-13-5.8-13-13c0-6.8,5.3-12.5,12.1-13l3.1-0.2l0.5-3.1
		C19.6,14.6,24.1,10.9,29.3,10.9 M29.3,7.8c-7.1,0-12.9,5.1-14.1,11.9C6.7,20.1,0,27.2,0,35.9c0,9,7.3,16.3,16.3,16.3
		c8.4,0,29.2,0,34.4,0S60,48,60,42.9c0-3.6-2.2-6.8-5.1-8.4c0.4-1.2,0.6-2.4,0.6-3.7c0-6.8-5.5-12.3-12.2-12.5
		C41.6,12.3,36,7.8,29.3,7.8L29.3,7.8z"/>
</g>
</svg>
