<?xml version="1.0" encoding="utf-8"?>
<!-- Generator: Adobe Illustrator 26.3.1, SVG Export Plug-In . SVG Version: 6.00 Build 0)  -->
<svg version="1.1" id="Layer_1" xmlns="http://www.w3.org/2000/svg" xmlns:xlink="http://www.w3.org/1999/xlink" x="0px" y="0px"
	 width="60px" height="60px" viewBox="0 0 60 60" style="enable-background:new 0 0 60 60;" xml:space="preserve">
<style type="text/css">
	.st0{fill:#FFFFFF;}
</style>
<g>
	<path class="st0" d="M24.5,26.1c3.9,0,7.4,2.7,8.4,6.5l0.6,2.3h2.4c3.9,0.1,7,3.3,7,7.2c0,0.7-0.1,1.5-0.3,2.2l-0.8,2.6l2.5,1.2
		c1.6,0.8,2.5,2.3,2.5,4.1c0,2.5-2,4.6-4.6,4.6H13.6c-5.7,0-10.4-4.7-10.4-10.4c0-5.5,4.3-10,9.8-10.4l2.5-0.2l0.4-2.5
		C16.7,29.1,20.3,26.1,24.5,26.1 M24.5,22.9c-5.9,0-10.8,4.3-11.8,9.9C5.6,33.2,0,39.1,0,46.4C0,53.9,6.1,60,13.6,60
		c7,0,24.4,0,28.7,0s7.8-3.5,7.8-7.8c0-3-1.8-5.7-4.3-7c0.3-1,0.5-2,0.5-3.1c0-5.7-4.6-10.3-10.2-10.4
		C34.7,26.7,30.1,22.9,24.5,22.9L24.5,22.9z"/>
	<g>
		<path class="st0" d="M51.3,37.3c-0.8,0-1.5-0.7-1.5-1.5s0.7-1.5,1.5-1.5c3.1,0,5.7-2.6,5.7-5.7c0-2.2-1.2-4.1-3.1-5.1l-1.1-0.6
			l0.4-1.2c0.2-0.8,0.4-1.6,0.4-2.4c0-4.4-3.6-8-7.9-8.1l-1.1,0l-0.3-1.1C43,5.9,39.2,3,34.9,3c-4.6,0-8.6,3.3-9.4,7.9L25.3,12
			l-1.2,0.1c-5.8,0.4-10.4,5.2-10.4,11.1c0,0.8-0.7,1.5-1.5,1.5s-1.5-0.7-1.5-1.5c0-7,5.2-13,12.1-13.9C24.3,3.8,29.2,0,34.9,0
			c5.3,0,10,3.3,11.8,8.3c5.5,0.6,9.8,5.4,9.8,11c0,0.7-0.1,1.5-0.2,2.2c2.3,1.6,3.7,4.2,3.7,7.1C60,33.4,56.1,37.3,51.3,37.3z"/>
	</g>
</g>
</svg>
