<?xml version="1.0" encoding="utf-8"?>
<!-- Generator: Adobe Illustrator 26.3.1, SVG Export Plug-In . SVG Version: 6.00 Build 0)  -->
<svg version="1.1" id="Layer_1" xmlns="http://www.w3.org/2000/svg" xmlns:xlink="http://www.w3.org/1999/xlink" x="0px" y="0px"
	 width="60px" height="60px" viewBox="0 0 60 60" style="enable-background:new 0 0 60 60;" xml:space="preserve">
<style type="text/css">
	.st0{fill:#FFFFFF;}
</style>
<g>
	<path class="st0" d="M24.9,26.4c3.6,0,6.9,2.5,7.8,6.1l0.6,2.1h2.2c3.6,0.1,6.5,3.1,6.5,6.7c0,0.7-0.1,1.4-0.3,2.1L41,45.8l2.3,1.1
		c1.5,0.7,2.3,2.1,2.3,3.8c0,2.3-1.9,4.3-4.3,4.3H14.7C9.4,55,5,50.6,5,45.3c0-5.1,4-9.3,9.1-9.7l2.3-0.2l0.4-2.3
		C17.6,29.2,20.9,26.4,24.9,26.4 M24.9,23.4c-5.5,0-10.1,4-11,9.2C7.2,33,2,38.5,2,45.3C2,52.3,7.7,58,14.7,58c6.5,0,22.8,0,26.8,0
		s7.3-3.3,7.3-7.3c0-2.8-1.7-5.3-4-6.5c0.3-0.9,0.5-1.9,0.5-2.9c0-5.3-4.3-9.6-9.5-9.7C34.4,26.9,30.1,23.4,24.9,23.4L24.9,23.4z"/>
	<g>
		<path class="st0" d="M49.9,36.8c-0.7,0-1.4-0.7-1.4-1.4s0.7-1.4,1.4-1.4c2.9,0,5.3-2.4,5.3-5.3c0-2.1-1.1-3.8-2.9-4.8l-1-0.6
			l0.4-1.1c0.2-0.7,0.4-1.5,0.4-2.2c0-4.1-3.4-7.5-7.4-7.6h-1l-0.3-1c-1.2-3.9-4.8-6.6-8.8-6.6c-4.3,0-8,3.1-8.8,7.4l-0.2,1
			l-1.1,0.1c-5.4,0.4-9.7,4.9-9.7,10.4c0,0.7-0.7,1.4-1.4,1.4S12,24.4,12,23.7c0-6.5,4.9-12.1,11.3-13c1.4-5.1,6-8.7,11.3-8.7
			c4.9,0,9.3,3.1,11,7.7c5.1,0.6,9.1,5,9.1,10.3c0,0.7-0.1,1.4-0.2,2.1c2.1,1.5,3.5,3.9,3.5,6.6C58,33.2,54.4,36.8,49.9,36.8z"/>
	</g>
</g>
</svg>
