<?xml version="1.0" encoding="utf-8"?>
<!-- Generator: Adobe Illustrator 26.3.1, SVG Export Plug-In . SVG Version: 6.00 Build 0)  -->
<svg version="1.1" id="Layer_1" xmlns="http://www.w3.org/2000/svg" xmlns:xlink="http://www.w3.org/1999/xlink" x="0px" y="0px"
	 width="60px" height="60px" viewBox="0 0 60 60" style="enable-background:new 0 0 60 60;" xml:space="preserve">
<style type="text/css">
	.st0{fill:#FFFFFF;}
</style>
<g>
	<g>
		<g>
			<circle class="st0" cx="19.5" cy="41.4" r="1.7"/>
			<circle class="st0" cx="28.3" cy="41.4" r="1.7"/>
			<circle class="st0" cx="19.5" cy="49.8" r="1.7"/>
			<circle class="st0" cx="28.3" cy="49.8" r="1.7"/>
			<circle class="st0" cx="19.5" cy="58.3" r="1.7"/>
		</g>
		<g>
			<path class="st0" d="M8.6,54.7C3.9,54.7,0,50.8,0,46c0-2.8,1.4-5.5,3.6-7.1c-0.1-0.7-0.2-1.4-0.2-2.1c0-5.6,4.3-10.3,9.8-10.9
				c1.8-4.8,6.4-8.1,11.7-8.1c5.6,0,10.5,3.7,12,9c6.8,1,12,6.8,12,13.8c0,6.6-4.7,12.4-11.2,13.7c-0.8,0.2-1.7-0.4-1.9-1.3
				c-0.2-0.9,0.4-1.8,1.2-2c5-1,8.6-5.4,8.6-10.5c0-5.6-4.5-10.3-10.1-10.6l-1.2-0.1l-0.2-1.3c-0.7-4.4-4.6-7.5-9.2-7.5
				c-4.2,0-7.9,2.8-9,6.8L15.6,29h-1.2c-4.3,0.1-7.7,3.5-7.7,7.7c0,0.8,0.1,1.6,0.4,2.2l0.4,1.7l-1.3,0.7c-1.9,0.9-3,2.7-3,4.8
				c0,2.9,2.5,5.4,5.5,5.4c0.8,0,1.6,0.8,1.6,1.7S9.6,54.7,8.6,54.7z"/>
		</g>
	</g>
	<g>
		<g>
			<path class="st0" d="M36.2,8.2c-0.9-0.1-1.5-0.8-1.4-1.7l0.5-5c0-0.9,0.8-1.6,1.7-1.5s1.5,0.8,1.4,1.7l-0.5,5
				C37.9,7.6,37.1,8.3,36.2,8.2z"/>
		</g>
		<g>
			<path class="st0" d="M26.5,9.8c-0.6-0.1-1.1-0.4-1.3-0.9l-2.1-4.5c-0.3-0.8,0-1.8,0.8-2.1c0.8-0.3,1.8,0,2.1,0.8l2.1,4.5
				c0.3,0.8,0,1.8-0.8,2.1C27.1,9.8,26.8,9.8,26.5,9.8z"/>
		</g>
		<g>
			<path class="st0" d="M58.3,29.2l-5-0.5c-0.9-0.1-1.5-0.8-1.4-1.7s0.8-1.5,1.7-1.4l5,0.5c0.9,0.1,1.5,0.8,1.4,1.7
				C59.9,28.7,59.1,29.3,58.3,29.2z"/>
		</g>
		<g>
			<path class="st0" d="M51.7,19.1c-0.6-0.1-1.1-0.4-1.3-0.9c-0.3-0.8,0-1.8,0.8-2.1l4.5-2.1c0.8-0.3,1.8,0,2.1,0.8
				c0.3,0.8,0,1.8-0.8,2.1L52.5,19C52.2,19.1,52,19.2,51.7,19.1z"/>
		</g>
		<g>
			<path class="st0" d="M45.4,11.5c-0.3,0-0.5-0.1-0.8-0.3c-0.8-0.5-0.9-1.5-0.4-2.2L47,5c0.5-0.8,1.5-0.9,2.2-0.4
				c0.8,0.5,0.9,1.5,0.4,2.2l-2.9,4.1C46.6,11.3,45.9,11.6,45.4,11.5z"/>
		</g>
		<g>
			<path class="st0" d="M46.4,25.1c-0.8,0-1.6-0.6-1.7-1.4c-0.7-5.6-5.7-9.5-11.3-8.9c-0.9,0.1-1.7-0.5-1.8-1.4
				c-0.1-0.9,0.5-1.7,1.4-1.8c7.3-0.9,14,4.3,14.9,11.7C48,24.2,47.4,25,46.4,25.1C46.5,25.1,46.5,25.1,46.4,25.1z"/>
		</g>
	</g>
</g>
</svg>
