<?xml version="1.0" encoding="utf-8"?>
<!-- Generator: Adobe Illustrator 26.3.1, SVG Export Plug-In . SVG Version: 6.00 Build 0)  -->
<svg version="1.1" id="Layer_1" xmlns="http://www.w3.org/2000/svg" xmlns:xlink="http://www.w3.org/1999/xlink" x="0px" y="0px"
	 width="60px" height="60px" viewBox="0 0 60 60" style="enable-background:new 0 0 60 60;" xml:space="preserve">
<style type="text/css">
	.st0{fill:#FFFFFF;}
</style>
<g>
	<g>
		<path class="st0" d="M12.2,44.6c-5.4,0-9.7-4.4-9.7-9.7c0-3.2,1.6-6.2,4.2-8c-0.2-0.8-0.2-1.6-0.2-2.4c0-6.3,4.8-11.6,10.9-12.3
			c2-5.5,7.2-9.2,13.2-9.2C37,3,42.5,7.3,44,13.3c7.7,1.1,13.5,7.7,13.5,15.6c0,7.5-5.3,13.9-12.6,15.4c-0.9,0.2-1.8-0.4-2-1.3
			c-0.2-0.9,0.4-1.8,1.3-2c5.7-1.2,9.9-6.3,9.9-12.2c0-6.5-5.1-12-11.6-12.4l-1.3-0.1L41,15.1C40,10,35.7,6.3,30.5,6.3
			c-4.8,0-9,3.3-10.3,7.9l-0.3,1.3h-1.3c-4.9,0.1-8.9,4.1-8.9,9c0,0.9,0.1,1.8,0.4,2.7l0.4,1.4l-1.3,0.6c-2.2,1.1-3.5,3.3-3.5,5.7
			c0,3.5,2.9,6.4,6.4,6.4c0.9,0,1.7,0.8,1.7,1.7S13.1,44.6,12.2,44.6z"/>
	</g>
	<path class="st0" d="M37,37.4l-1.3-0.8l1.2-0.7c0.8-0.5,1.1-1.5,0.6-2.3c-0.5-0.8-1.5-1.1-2.3-0.6l-1.1,0.7v-1.2
		c0-0.9-0.8-1.7-1.7-1.7c-0.9,0-1.7,0.8-1.7,1.7v1.3L29.4,33c-0.8-0.5-1.9-0.2-2.3,0.6c-0.5,0.8-0.2,1.9,0.6,2.3l1.2,0.7l-1.3,0.7
		c-0.8,0.5-1.1,1.5-0.6,2.3c0.4,0.8,1.5,1.1,2.3,0.6l1.3-0.8v1.6c0,0.9,0.8,1.7,1.7,1.7c0.9,0,1.7-0.8,1.7-1.7v-1.5l1.2,0.7
		c0.8,0.4,1.9,0.2,2.3-0.6C38.1,39,37.8,37.9,37,37.4z"/>
	<path class="st0" d="M25.6,49.4l-1.3-0.8l1.2-0.7c0.8-0.5,1.1-1.5,0.6-2.3c-0.5-0.8-1.5-1.1-2.3-0.6l-1.1,0.7v-1.2
		c0-0.9-0.8-1.7-1.7-1.7c-0.9,0-1.7,0.8-1.7,1.7v1.3L18.1,45c-0.8-0.5-1.9-0.2-2.3,0.6c-0.5,0.8-0.2,1.9,0.6,2.3l1.2,0.7l-1.3,0.7
		c-0.8,0.5-1.1,1.5-0.6,2.3c0.4,0.8,1.5,1.1,2.3,0.6l1.3-0.8v1.6c0,0.9,0.8,1.7,1.7,1.7c0.9,0,1.7-0.8,1.7-1.7v-1.5l1.2,0.7
		c0.8,0.4,1.9,0.2,2.3-0.6C26.7,50.9,26.4,49.8,25.6,49.4z"/>
	<path class="st0" d="M42.9,52.5l-1.3-0.8l1.2-0.7c0.8-0.5,1.1-1.5,0.6-2.3c-0.5-0.8-1.5-1.1-2.3-0.6L40,48.8v-1.2
		c0-0.9-0.8-1.7-1.7-1.7c-0.9,0-1.7,0.8-1.7,1.7v1.3l-1.3-0.7c-0.8-0.5-1.9-0.2-2.3,0.6c-0.5,0.8-0.2,1.9,0.6,2.3l1.2,0.7l-1.3,0.7
		c-0.8,0.5-1.1,1.5-0.6,2.3c0.4,0.8,1.5,1.1,2.3,0.6l1.3-0.8v1.6c0,0.9,0.8,1.7,1.7,1.7c0.9,0,1.7-0.8,1.7-1.7v-1.5l1.2,0.7
		c0.8,0.4,1.9,0.2,2.3-0.6C44,54.1,43.7,53,42.9,52.5z"/>
</g>
</svg>
