<?xml version="1.0" encoding="utf-8"?>
<!-- Generator: Adobe Illustrator 26.3.1, SVG Export Plug-In . SVG Version: 6.00 Build 0)  -->
<svg version="1.1" id="Layer_1" xmlns="http://www.w3.org/2000/svg" xmlns:xlink="http://www.w3.org/1999/xlink" x="0px" y="0px"
	 width="60px" height="60px" viewBox="0 0 60 60" style="enable-background:new 0 0 60 60;" xml:space="preserve">
<style type="text/css">
	.st0{fill:#FFFFFF;}
</style>
<g>
	<g>
		<path class="st0" d="M58.3,33.3c0.7,0,1.3,0.4,1.6,1.1c0.3,0.9-0.1,1.9-1,2.2c-0.2,0.1-5.7,2.1-15.4,2.1c-1,0-2.1,0-3.1-0.1
			c-0.9-0.1-1.7-0.9-1.6-1.8c0.1-0.9,0.9-1.7,1.8-1.6c1,0.1,1.9,0.1,2.9,0.1c9,0,14.1-1.9,14.2-1.9C57.9,33.4,58.1,33.3,58.3,33.3z"
			/>
	</g>
	<g>
		<path class="st0" d="M1.7,47.9c-0.7,0-1.3-0.4-1.6-1.1c-0.3-0.9,0.1-1.9,1-2.2c0.2-0.1,5.7-2.1,15.4-2.1c1,0,2.1,0,3.1,0.1
			c0.9,0.1,1.7,0.9,1.6,1.8c-0.1,0.9-0.9,1.7-1.8,1.6c-1-0.1-1.9-0.1-2.9-0.1c-9,0-14.1,1.9-14.2,1.9C2.1,47.9,1.9,47.9,1.7,47.9z"
			/>
	</g>
	<g>
		<path class="st0" d="M58.3,54.5c0.7,0,1.3,0.4,1.6,1.1c0.3,0.9-0.1,1.9-1,2.2C58.7,58,53.2,60,43.5,60c-1,0-2.1,0-3.1-0.1
			c-0.9-0.1-1.7-0.9-1.6-1.8c0.1-0.9,0.9-1.7,1.8-1.6c1,0.1,1.9,0.1,2.9,0.1c9,0,14.1-1.9,14.2-1.9C57.9,54.6,58.1,54.5,58.3,54.5z"
			/>
	</g>
	<g>
		<path class="st0" d="M1.7,26.7c-0.7,0-1.3-0.4-1.6-1.1c-0.3-0.9,0.1-1.9,1-2.2c0.2-0.1,5.7-2.1,15.4-2.1c1,0,2.1,0,3.1,0.1
			c0.9,0.1,1.7,0.9,1.6,1.8c-0.1,0.9-0.9,1.7-1.8,1.6c-1-0.1-1.9-0.1-2.9-0.1c-9,0-14.1,1.9-14.2,1.9C2.1,26.6,1.9,26.7,1.7,26.7z"
			/>
	</g>
	<g>
		<path class="st0" d="M58.3,12.1c0.7,0,1.3,0.4,1.6,1.1c0.3,0.9-0.1,1.9-1,2.2c-0.2,0.1-5.7,2.1-15.4,2.1c-1,0-2.1,0-3.1-0.1
			c-0.9-0.1-1.7-0.9-1.6-1.8c0.1-0.9,0.9-1.7,1.8-1.6c1,0.1,1.9,0.1,2.9,0.1c9,0,14.1-1.9,14.2-1.9C57.9,12.1,58.1,12.1,58.3,12.1z"
			/>
	</g>
	<g>
		<path class="st0" d="M1.7,5.5C1,5.5,0.4,5,0.1,4.3c-0.3-0.9,0.1-1.9,1-2.2C1.3,2,6.8,0,16.5,0c1,0,2.1,0,3.1,0.1
			C20.6,0.2,21.3,1,21.2,2c-0.1,0.9-0.9,1.7-1.8,1.6c-1-0.1-1.9-0.1-2.9-0.1c-9,0-14.1,1.9-14.2,1.9C2.1,5.4,1.9,5.5,1.7,5.5z"/>
	</g>
	<g>
		<path class="st0" d="M16.9,31.8c4.5,0,8.4,0.7,12.4,1.5c0.9,0.2,1.5,1.1,1.3,2c-0.2,0.9-1.1,1.5-2,1.3c-3.8-0.8-7.6-1.5-11.8-1.5
			c-9,0-14.7,1.7-14.7,1.7c-0.9,0.3-1.9-0.2-2.1-1.1c-0.3-0.9,0.2-1.9,1.1-2.1C1.5,33.6,7.3,31.8,16.9,31.8z"/>
	</g>
	<g>
		<path class="st0" d="M43.1,49.4c-4.5,0-8.4-0.7-12.4-1.5c-0.9-0.2-1.5-1.1-1.3-2c0.2-0.9,1.1-1.5,2-1.3c3.8,0.8,7.6,1.5,11.8,1.5
			c9,0,14.7-1.7,14.7-1.7c0.9-0.3,1.9,0.2,2.1,1.1c0.3,0.9-0.2,1.9-1.1,2.1C58.5,47.6,52.7,49.4,43.1,49.4z"/>
	</g>
	<g>
		<path class="st0" d="M16.9,53.1c4.5,0,8.4,0.7,12.4,1.5c0.9,0.2,1.5,1.1,1.3,2c-0.2,0.9-1.1,1.5-2,1.3c-3.8-0.8-7.6-1.5-11.8-1.5
			c-9,0-14.7,1.7-14.7,1.7c-0.9,0.3-1.9-0.2-2.1-1.1c-0.3-0.9,0.2-1.9,1.1-2.1C1.5,54.8,7.3,53.1,16.9,53.1z"/>
	</g>
	<g>
		<path class="st0" d="M43.1,28.2c-4.5,0-8.4-0.7-12.4-1.5c-0.9-0.2-1.5-1.1-1.3-2c0.2-0.9,1.1-1.5,2-1.3c3.8,0.8,7.6,1.5,11.8,1.5
			c9,0,14.7-1.7,14.7-1.7c0.9-0.3,1.9,0.2,2.1,1.1c0.3,0.9-0.2,1.9-1.1,2.1C58.5,26.4,52.7,28.2,43.1,28.2z"/>
	</g>
	<g>
		<path class="st0" d="M16.9,10.6c4.5,0,8.4,0.7,12.4,1.5c0.9,0.2,1.5,1.1,1.3,2c-0.2,0.9-1.1,1.5-2,1.3c-3.8-0.8-7.6-1.5-11.8-1.5
			c-9,0-14.7,1.7-14.7,1.7c-0.9,0.3-1.9-0.2-2.1-1.1c-0.3-0.9,0.2-1.9,1.1-2.1C1.5,12.4,7.3,10.6,16.9,10.6z"/>
	</g>
	<g>
		<path class="st0" d="M43.1,6.9c-4.5,0-8.4-0.7-12.4-1.5c-0.9-0.2-1.5-1.1-1.3-2c0.2-0.9,1.1-1.5,2-1.3c3.8,0.8,7.6,1.5,11.8,1.5
			c9,0,14.7-1.7,14.7-1.7c0.9-0.3,1.9,0.2,2.1,1.1c0.3,0.9-0.2,1.9-1.1,2.1C58.5,5.2,52.7,6.9,43.1,6.9z"/>
	</g>
</g>
</svg>
