<?xml version="1.0" encoding="utf-8"?>
<!-- Generator: Adobe Illustrator 26.3.1, SVG Export Plug-In . SVG Version: 6.00 Build 0)  -->
<svg version="1.1" id="Layer_1" xmlns="http://www.w3.org/2000/svg" xmlns:xlink="http://www.w3.org/1999/xlink" x="0px" y="0px"
	 width="60px" height="60px" viewBox="0 0 60 60" style="enable-background:new 0 0 60 60;" xml:space="preserve">
<style type="text/css">
	.st0{fill:#E3EEF9;}
	.st1{fill:#3A4856;}
</style>
<circle class="st0" cx="28.3" cy="39.2" r="18.8"/>
<path class="st1" d="M53.8,19.9c0-2.3-0.8-4.6-2.1-6.4l-1.5-1.7c-1.6-1.5-3.6-2.6-6-3.1L42,8.5c-2.3,0-4.6,0.8-6.4,2.1L34,12.1
	c-1.7,1.8-2.9,4.1-3.2,6.8c-0.9-1.3-2.1-2.4-3.4-3.3c-2-1.3-4.3-2-6.7-2c-6.6,0-12,5.1-12.5,11.6C3.5,26.3,0,30.7,0,35.8
	c0,6,4.8,10.9,10.8,10.9h7.4c0.8,2.8,3.4,4.8,6.5,4.8h26.5c4.9,0,8.8-3.9,8.8-8.8c0-2.1-0.8-4.2-2.2-5.8c-1.2-1.3-2.7-2.3-4.4-2.7
	c-0.2-2.4-1.2-4.5-2.8-6.1c1.6-1.6,2.6-3.7,3.1-6L53.8,19.9z M36.4,12.9c1.8-1.6,4.2-2.4,6.8-2.2c5.1,0.4,8.9,4.9,8.5,10
	c-0.2,2.2-1.1,4.3-2.7,5.8c-0.5-0.3-0.9-0.6-1.4-0.8c-0.6-2.1-1.8-4.1-3.6-5.5c-1.9-1.6-4.3-2.4-6.8-2.4c-1.2,0-2.4,0.2-3.6,0.6
	C33.6,16.2,34.7,14.3,36.4,12.9z M20.1,39.8C20.1,39.8,20,39.8,20.1,39.8C20,39.9,20,39.9,19.9,40l-0.1,0.1c0,0,0,0-0.1,0.1
	l-0.1,0.1c0,0,0,0-0.1,0.1l-0.1,0.1c0,0,0,0.1-0.1,0.1l-0.1,0.1c0,0,0,0.1-0.1,0.1L19,40.9c0,0,0,0.1-0.1,0.1c0,0,0,0.1-0.1,0.1
	c0,0,0,0.1-0.1,0.1c0,0,0,0.1-0.1,0.1c0,0,0,0.1-0.1,0.1c0,0,0,0.1-0.1,0.1v0.1c0,0,0,0.1-0.1,0.1v0.1c0,0,0,0.1-0.1,0.1
	c0,0,0,0,0,0.1c0,0,0,0.1-0.1,0.2c0,0,0,0,0,0.1c-0.1,0.1-0.1,0.3-0.2,0.4c0,0,0,0,0,0.1c0,0,0,0.1-0.1,0.2v0.1v0.1v0.1v0.1v0.1v0.1
	v0.1v0.1v0.1V44v0.1v0.1v0.1v0.1v0.1c0,0,0,0,0,0.1h-7.1c-4.7,0-8.5-3.9-8.5-8.6c0-4.3,3.2-7.9,7.3-8.5c0.6-0.1,1-0.6,1-1.1
	c0,0,0,0,0-0.1c0-5.6,4.6-10.2,10.3-10.2c4,0,7.5,2.2,9.2,5.8c0.1,0.3,0.4,0.5,0.8,0.6c0.3,0.1,0.7,0,1-0.2c1.5-1.2,3.4-1.9,5.3-1.9
	c3.3,0,6.3,2,7.7,4.9c-0.1,0-0.2,0-0.3,0c0,0,0,0-0.1,0s-0.2,0-0.3,0s-0.1,0-0.2,0c-0.1,0-0.1,0-0.2,0c-0.1,0-0.3,0-0.4,0l0,0l0,0
	l0,0c-3.4,0-6.7,1.8-8.5,4.6c-0.4-0.2-0.7-0.4-1.1-0.5c-1-0.4-2.2-0.6-3.3-0.6c-0.5,0-0.9,0-1.3,0.1c-4.1,0.6-7.2,4-7.4,8.2
	c0,0.2,0,0.3,0,0.5c0,0.3,0,0.5,0,0.8s0.1,0.5,0.1,0.8c-0.1,0-0.1,0.1-0.2,0.1c0,0,0,0-0.1,0c0,0-0.1,0-0.1,0.1h-0.1
	c0,0-0.1,0-0.1,0.1c0,0-0.1,0-0.1,0.1c0,0-0.1,0-0.1,0.1c0,0-0.1,0-0.1,0.1c0,0-0.1,0-0.1,0.1c0,0-0.1,0-0.1,0.1l-0.1,0.1
	c0,0-0.1,0-0.1,0.1l-0.1,0.1c0,0-0.1,0-0.1,0.1C20.2,39.7,20.2,39.7,20.1,39.8C20.2,39.7,20.1,39.8,20.1,39.8z M51.2,49.2H24.7
	c-2.5,0-4.5-2-4.5-4.5c0-2,1.3-3.7,3.2-4.3c0.3-0.1,0.5-0.3,0.7-0.5v-0.1c0.1-0.1,0.1-0.3,0.1-0.4c0-0.1,0-0.2,0-0.3
	c-0.2-0.6-0.3-1.3-0.3-1.9c0-3.6,2.9-6.5,6.5-6.5c1.5,0,2.9,0.5,4.1,1.4c0.3,0.2,0.6,0.3,1,0.2c0.3-0.1,0.6-0.3,0.8-0.6
	c1.3-2.7,4.1-4.4,7.1-4.4h0.1c0.1,0,0.2,0,0.3,0s0.2,0,0.3,0c0,0,0,0,0.1,0c0.7,0.1,1.4,0.2,2.1,0.5h0.1c2.9,1.2,5,4,5,7.3l0,0
	c0,0.6,0.4,1,1,1.1c1.5,0.2,2.9,1,4,2.2c1,1.2,1.6,2.7,1.6,4.3C57.7,46.3,54.8,49.2,51.2,49.2z"/>
</svg>
