<?xml version="1.0" encoding="utf-8"?>
<!-- Generator: Adobe Illustrator 26.3.1, SVG Export Plug-In . SVG Version: 6.00 Build 0)  -->
<svg version="1.1" id="Layer_1" xmlns="http://www.w3.org/2000/svg" xmlns:xlink="http://www.w3.org/1999/xlink" x="0px" y="0px"
	 width="60px" height="60px" viewBox="0 0 60 60" style="enable-background:new 0 0 60 60;" xml:space="preserve">
<style type="text/css">
	.st0{fill:#E3EEF9;}
	.st1{fill:#3A4856;}
</style>
<circle class="st0" cx="22.9" cy="29.6" r="18.8"/>
<path class="st1" d="M58.1,40.6c-1-1.3-2.3-2.3-3.7-2.9c0.2-0.8,0.3-1.7,0.3-2.6c0-2.6-0.8-5-2.2-6.9c1.9-1.9,3-4.4,3.3-7h2.9
	c0.6,0,1.1-0.5,1.1-1.1S59.3,19,58.7,19h-2.9c-0.2-2.3-1.2-4.5-2.6-6.2l2.1-2.1c0.4-0.4,0.4-1.2,0-1.6c-0.4-0.4-1.2-0.4-1.6,0
	l-2.1,2.1c-1.7-1.4-3.8-2.3-6.2-2.6V5.7c0-0.6-0.5-1.1-1.1-1.1s-1.1,0.5-1.1,1.1v2.9c-2.3,0.2-4.5,1.2-6.2,2.6l-2-2.1
	c-0.4-0.4-1.2-0.4-1.6,0s-0.4,1.2,0,1.6l2.1,2.1c-1.6,2-2.6,4.5-2.6,7.3c0,0.4,0,0.8,0.1,1.2c-0.5-0.4-1-0.8-1.5-1.1
	c-2.3-1.5-4.9-2.2-7.6-2.2c-7.5,0-13.7,5.9-14.2,13.3c-2.7,0.5-5,1.9-6.7,3.9c-2,2.2-3,5.1-3,8.1C0,50,5.5,55.5,12.2,55.5h38.4
	c5.1,0,9.3-4.2,9.3-9.3C60,44.2,59.4,42.2,58.1,40.6z M37.8,13.5L37.8,13.5L37.8,13.5c1.7-1.7,4-2.7,6.6-2.7c5.1,0,9.3,4.2,9.3,9.3
	c0,2.4-0.9,4.7-2.6,6.4c-0.2-0.2-0.4-0.4-0.6-0.6c0,0-0.1,0-0.1-0.1l-0.1-0.1l-0.1-0.1c0,0-0.1,0-0.1-0.1c-0.1,0-0.1-0.1-0.2-0.1
	l0,0c-0.1-0.1-0.1-0.1-0.2-0.2l0,0c-0.1-0.1-0.2-0.1-0.2-0.2l0,0c-0.1-0.1-0.2-0.1-0.2-0.2l0,0c-0.1-0.1-0.2-0.1-0.2-0.2l0,0
	c-0.1,0-0.2-0.1-0.2-0.1l0,0c-0.1,0-0.2-0.1-0.2-0.1l0,0c-0.1,0-0.1-0.1-0.2-0.1c0,0,0,0-0.1,0s-0.1-0.1-0.2-0.1h-0.1
	c-0.1,0-0.1-0.1-0.2-0.1h-0.1c0,0-0.1,0-0.1-0.1c0,0-0.1,0-0.1-0.1h-0.1c-0.1,0-0.1,0-0.2-0.1h-0.1c-0.1,0-0.1-0.1-0.2-0.1
	c0,0,0,0-0.1,0s-0.2-0.1-0.2-0.1l0,0c-1.1-0.4-2.3-0.6-3.5-0.6h-0.1c-0.1,0-0.1,0-0.2,0l0,0l0,0c-2.2,0-4.3,0.6-6.2,1.7
	c-0.8-1.4-1.2-2.9-1.2-4.5C35.1,17.5,36.1,15.2,37.8,13.5z M50.7,53.2H12.2c-5.5,0-10-4.5-10-10c0-2.4,0.9-4.8,2.5-6.6
	s3.7-3,6.1-3.3c0.6-0.1,1-0.6,1-1.1v-0.1c0-6.6,5.4-11.9,12-11.9c2.3,0,4.5,0.6,6.4,1.9c1.9,1.2,3.4,2.9,4.3,4.9
	c0.1,0.3,0.4,0.5,0.8,0.6c0.3,0.1,0.7,0,1-0.2c0.2-0.2,0.4-0.3,0.6-0.5c0,0,0,0,0.1,0c0,0,0.1,0,0.1-0.1c0.3-0.2,0.6-0.4,0.9-0.5
	l0,0c0.1-0.1,0.2-0.1,0.3-0.2l0,0c0.1-0.1,0.2-0.1,0.3-0.1l0,0c0.1,0,0.2-0.1,0.3-0.1l0,0c0.1,0,0.2-0.1,0.3-0.1c0,0,0,0,0.1,0
	s0.2-0.1,0.3-0.1h0.1c0.1,0,0.2-0.1,0.3-0.1h0.1c0.1,0,0.2,0,0.3-0.1h0.1c0.1,0,0.2,0,0.2,0c0.1,0,0.1,0,0.2,0c0.1,0,0.1,0,0.2,0
	c0.1,0,0.2,0,0.2,0c0.1,0,0.1,0,0.2,0c0.1,0,0.2,0,0.3,0h0.1c0.1,0,0.3,0,0.4,0c0.1,0,0.2,0,0.3,0l0,0c0.1,0,0.2,0,0.3,0l0,0
	c0.1,0,0.2,0,0.3,0l0,0c1.1,0.1,2.2,0.4,3.2,0.8l0,0c0.1,0,0.2,0.1,0.2,0.1l0,0c0.1,0,0.2,0.1,0.2,0.1l0,0c0.3,0.2,0.6,0.3,0.9,0.5
	l0,0c0.1,0,0.1,0.1,0.2,0.1l0,0c0.7,0.5,1.4,1.1,2,1.9c0,0,0,0,0,0.1c1.4,1.7,2.3,3.9,2.3,6.3c0,1-0.1,2-0.4,2.9
	c-0.1,0.3-0.1,0.6,0.1,0.9c0.1,0.3,0.4,0.5,0.7,0.5c2.9,0.9,5,3.6,5,6.7C57.7,50.1,54.6,53.2,50.7,53.2z"/>
</svg>
