<?xml version="1.0" encoding="utf-8"?>
<!-- Generator: Adobe Illustrator 26.3.1, SVG Export Plug-In . SVG Version: 6.00 Build 0)  -->
<svg version="1.1" id="Layer_1" xmlns="http://www.w3.org/2000/svg" xmlns:xlink="http://www.w3.org/1999/xlink" x="0px" y="0px"
	 width="60px" height="60px" viewBox="0 0 60 60" style="enable-background:new 0 0 60 60;" xml:space="preserve">
<style type="text/css">
	.st0{fill:#FFFFFF;}
</style>
<g>
	<g>
		<path class="st0" d="M12.2,44.1c-5.4,0-9.7-4.4-9.7-9.7c0-3.2,1.6-6.2,4.2-8c-0.2-0.8-0.2-1.6-0.2-2.4c0-6.3,4.8-11.6,10.9-12.3
			c2-5.5,7.2-9.2,13.2-9.2c6.4,0,11.9,4.3,13.5,10.3c7.7,1.1,13.5,7.7,13.5,15.6c0,7.5-5.3,13.9-12.6,15.4c-0.9,0.2-1.8-0.4-2-1.3
			c-0.2-0.9,0.4-1.8,1.3-2c5.7-1.2,9.9-6.3,9.9-12.2c0-6.5-5.1-12-11.6-12.4l-1.3-0.1L41,14.6c-0.9-5.1-5.3-8.8-10.5-8.8
			c-4.8,0-9,3.3-10.3,7.9L19.9,15l-1.3,0c-4.9,0.1-8.9,4.1-8.9,9c0,0.9,0.1,1.8,0.4,2.7l0.4,1.4l-1.3,0.6c-2.2,1.1-3.5,3.3-3.5,5.7
			c0,3.5,2.9,6.4,6.4,6.4c0.9,0,1.7,0.8,1.7,1.7S13.1,44.1,12.2,44.1z"/>
	</g>
	<g>
		<path class="st0" d="M29.5,50.4c-0.9,0-1.7-0.8-1.7-1.7V31.2c0-0.9,0.8-1.7,1.7-1.7s1.7,0.8,1.7,1.7v17.5
			C31.2,49.6,30.4,50.4,29.5,50.4z"/>
	</g>
	<g>
		<path class="st0" d="M38.3,57.5c-0.9,0-1.7-0.8-1.7-1.7V38.3c0-0.9,0.8-1.7,1.7-1.7c0.9,0,1.7,0.8,1.7,1.7v17.5
			C40,56.7,39.2,57.5,38.3,57.5z"/>
	</g>
	<g>
		<path class="st0" d="M21,57.5c-0.9,0-1.7-0.8-1.7-1.7V38.3c0-0.9,0.8-1.7,1.7-1.7s1.7,0.8,1.7,1.7v17.5C22.7,56.7,22,57.5,21,57.5
			z"/>
	</g>
</g>
</svg>
