<?xml version="1.0" encoding="utf-8"?>
<!-- Generator: Adobe Illustrator 26.3.1, SVG Export Plug-In . SVG Version: 6.00 Build 0)  -->
<svg version="1.1" id="Layer_1" xmlns="http://www.w3.org/2000/svg" xmlns:xlink="http://www.w3.org/1999/xlink" x="0px" y="0px"
	 width="60px" height="60px" viewBox="0 0 60 60" style="enable-background:new 0 0 60 60;" xml:space="preserve">
<style type="text/css">
	.st0{fill:#E3EEF9;}
	.st1{fill:#3A4856;}
</style>
<circle class="st0" cx="41.2" cy="20.5" r="18.8"/>
<g>
	<g>
		<path class="st1" d="M50.7,39.9H12.2C5.5,39.9,0,34.4,0,27.7c0-3,1.1-5.8,3-8.1c1.7-2,4-3.3,6.5-3.9C10,8.3,16.2,2.4,23.8,2.4
			c2.7,0,5.4,0.8,7.6,2.2c1.8,1.2,3.4,2.8,4.5,4.6c1.9-1.2,4.2-1.9,6.5-1.9c6.8,0,12.2,5.5,12.2,12.2c0,0.9-0.1,1.7-0.3,2.6
			c1.5,0.6,2.7,1.6,3.7,2.9c1.2,1.6,1.9,3.5,1.9,5.6C60,35.8,55.8,39.9,50.7,39.9z M23.8,4.7c-6.6,0-12,5.4-12,12v0.1
			c0,0.6-0.4,1-1,1.1c-2.4,0.3-4.5,1.5-6.1,3.3s-2.5,4.1-2.5,6.6c0,5.5,4.5,10,10,10h38.5c3.9,0,7-3.1,7-7c0-3.1-2-5.8-5-6.7
			c-0.3-0.1-0.5-0.3-0.7-0.5c-0.1-0.3-0.2-0.6-0.1-0.9c0.3-0.9,0.4-1.9,0.4-2.9c0-5.5-4.5-10-10-10c-2.3,0-4.4,0.8-6.2,2.2
			c-0.3,0.2-0.6,0.3-1,0.2c-0.3-0.1-0.6-0.3-0.8-0.6c-1-2-2.5-3.7-4.3-4.9C28.3,5.3,26,4.7,23.8,4.7z"/>
	</g>
	<g>
		<path class="st1" d="M11.9,49.3c-0.2,0-0.4,0-0.6-0.2c-0.5-0.3-0.7-1-0.4-1.5l2.6-4.6c0.3-0.5,1-0.7,1.5-0.4s0.7,1,0.4,1.5
			l-2.6,4.6C12.7,49.1,12.3,49.3,11.9,49.3z"/>
	</g>
	<g>
		<path class="st1" d="M22.8,49.3c-0.2,0-0.4,0-0.6-0.2c-0.5-0.3-0.7-1-0.4-1.5l2.6-4.6c0.3-0.5,1-0.7,1.5-0.4s0.7,1,0.4,1.5
			l-2.6,4.6C23.6,49.1,23.2,49.3,22.8,49.3z"/>
	</g>
	<g>
		<path class="st1" d="M33.7,49.3c-0.2,0-0.4,0-0.6-0.2c-0.5-0.3-0.7-1-0.4-1.5l2.6-4.6c0.3-0.5,1-0.7,1.5-0.4s0.7,1,0.4,1.5
			l-2.6,4.6C34.5,49.1,34.1,49.3,33.7,49.3z"/>
	</g>
	<g>
		<path class="st1" d="M44.6,49.3c-0.2,0-0.4,0-0.6-0.2c-0.5-0.3-0.7-1-0.4-1.5l2.6-4.6c0.3-0.5,1-0.7,1.5-0.4s0.7,1,0.4,1.5
			l-2.6,4.6C45.4,49.1,45,49.3,44.6,49.3z"/>
	</g>
	<g>
		<path class="st1" d="M7.3,57.6c-0.2,0-0.4,0-0.6-0.2c-0.5-0.3-0.7-1-0.4-1.5L9,51.3c0.3-0.5,1-0.7,1.5-0.4s0.7,1,0.4,1.5L8.3,57
			C8.1,57.4,7.7,57.6,7.3,57.6z"/>
	</g>
	<g>
		<path class="st1" d="M18.2,57.6c-0.2,0-0.4,0-0.6-0.2c-0.5-0.3-0.7-1-0.4-1.5l2.6-4.6c0.3-0.5,1-0.7,1.5-0.4s0.7,1,0.4,1.5
			L19.2,57C19,57.4,18.6,57.6,18.2,57.6z"/>
	</g>
	<g>
		<path class="st1" d="M29.1,57.6c-0.2,0-0.4,0-0.6-0.2c-0.5-0.3-0.7-1-0.4-1.5l2.6-4.6c0.3-0.5,1-0.7,1.5-0.4s0.7,1,0.4,1.5
			L30.1,57C29.9,57.4,29.5,57.6,29.1,57.6z"/>
	</g>
	<g>
		<path class="st1" d="M40,57.6c-0.2,0-0.4,0-0.6-0.2c-0.5-0.3-0.7-1-0.4-1.5l2.6-4.6c0.3-0.5,1-0.7,1.5-0.4s0.7,1,0.4,1.5L41,57
			C40.8,57.4,40.4,57.6,40,57.6z"/>
	</g>
</g>
</svg>
