<?xml version="1.0" encoding="utf-8"?>
<!-- Generator: Adobe Illustrator 26.3.1, SVG Export Plug-In . SVG Version: 6.00 Build 0)  -->
<svg version="1.1" id="Layer_1" xmlns="http://www.w3.org/2000/svg" xmlns:xlink="http://www.w3.org/1999/xlink" x="0px" y="0px"
	 width="60px" height="60px" viewBox="0 0 60 60" style="enable-background:new 0 0 60 60;" xml:space="preserve">
<style type="text/css">
	.st0{fill:#E3EEF9;}
	.st1{fill:#3A4856;}
</style>
<circle class="st0" cx="30" cy="35.9" r="18.8"/>
<g>
	<path class="st1" d="M58.1,26.2c-1-1.3-2.2-2.3-3.7-2.9c0.2-0.8,0.3-1.7,0.3-2.6c0-6.8-5.5-12.2-12.2-12.2c-2.3,0-4.6,0.7-6.5,1.9
		c-1.1-1.9-2.7-3.4-4.5-4.6c-2.3-1.5-4.9-2.2-7.6-2.2C16.2,3.5,10,9.4,9.6,16.8C7,17.4,4.8,18.7,3,20.7c-2,2.2-3,5.1-3,8.1
		C0,35.5,5.5,41,12.2,41h38.5c5.1,0,9.3-4.1,9.3-9.2C60,29.7,59.4,27.8,58.1,26.2z M50.7,38.7H12.2c-5.5,0-10-4.5-10-10
		c0-2.4,0.9-4.8,2.5-6.6c1.6-1.8,3.7-3,6.1-3.3c0.6-0.1,1-0.6,1-1.1v-0.1c0-6.6,5.4-12,12-12c2.3,0,4.5,0.6,6.4,1.9
		c1.9,1.2,3.4,2.9,4.3,4.9c0.2,0.3,0.4,0.5,0.8,0.6s0.7,0,1-0.2c1.8-1.4,3.9-2.2,6.2-2.2c5.5,0,10,4.5,10,10c0,1-0.1,2-0.4,2.9
		c-0.1,0.3-0.1,0.6,0.1,0.9s0.4,0.5,0.7,0.5c2.9,0.9,5,3.6,5,6.7C57.7,35.6,54.6,38.7,50.7,38.7z"/>
	<path class="st1" d="M18.4,51.9l-2.8-1.6l2.8-1.6c0.5-0.3,0.7-1,0.4-1.5s-1-0.7-1.5-0.4l-2.7,1.6V45c0-0.6-0.5-1.1-1.1-1.1
		s-1.1,0.5-1.1,1.1v3.4l-2.8-1.6c-0.5-0.3-1.2-0.1-1.5,0.4S8,48.4,8.5,48.7l2.8,1.6l-2.8,1.6c-0.5,0.3-0.7,1-0.4,1.5
		c0.2,0.4,0.6,0.6,1,0.6c0.2,0,0.4,0,0.6-0.2l2.8-1.6v3.2c0,0.6,0.5,1.1,1.1,1.1s1.1-0.5,1.1-1.1v-3.1l2.7,1.6
		c0.2,0.1,0.4,0.2,0.6,0.2c0.4,0,0.8-0.2,1-0.6C19.1,52.9,18.9,52.2,18.4,51.9z"/>
	<path class="st1" d="M35,51.9l-2.8-1.6l2.8-1.6c0.5-0.3,0.7-1,0.4-1.5s-1-0.7-1.5-0.4l-2.8,1.6V45c0-0.6-0.5-1.1-1.1-1.1
		s-1.1,0.5-1.1,1.1v3.3l-2.8-1.6c-0.5-0.3-1.2-0.1-1.5,0.4s-0.1,1.2,0.4,1.5l2.8,1.6L25,51.9c-0.5,0.3-0.7,1-0.4,1.5
		c0.2,0.4,0.6,0.6,1,0.6c0.2,0,0.4,0,0.6-0.2l2.8-1.6v3.1c0,0.6,0.5,1.1,1.1,1.1s1.1-0.5,1.1-1.1v-3.1l2.8,1.6
		c0.2,0.1,0.4,0.2,0.6,0.2c0.4,0,0.8-0.2,1-0.6C35.7,52.9,35.6,52.2,35,51.9z"/>
	<path class="st1" d="M51.6,51.9l-2.8-1.6l2.8-1.6c0.5-0.3,0.7-1,0.4-1.5s-1-0.7-1.5-0.4l-2.8,1.6V45c0-0.6-0.5-1.1-1.1-1.1
		s-1.1,0.5-1.1,1.1v3.3l-2.8-1.6c-0.5-0.3-1.2-0.1-1.5,0.4s-0.1,1.2,0.4,1.5l2.8,1.6l-2.8,1.6c-0.5,0.3-0.7,1-0.4,1.5
		c0.2,0.4,0.6,0.6,1,0.6c0.2,0,0.4,0,0.6-0.2l2.8-1.6v3.1c0,0.6,0.5,1.1,1.1,1.1s1.1-0.5,1.1-1.1v-3.1l2.8,1.6
		c0.2,0.1,0.4,0.2,0.6,0.2c0.4,0,0.8-0.2,1-0.6C52.4,52.9,52.2,52.2,51.6,51.9z"/>
</g>
</svg>
