<?xml version="1.0" encoding="utf-8"?>
<!-- Generator: Adobe Illustrator 26.3.1, SVG Export Plug-In . SVG Version: 6.00 Build 0)  -->
<svg version="1.1" id="Layer_1" xmlns="http://www.w3.org/2000/svg" xmlns:xlink="http://www.w3.org/1999/xlink" x="0px" y="0px"
	 width="60px" height="60px" viewBox="0 0 60 60" style="enable-background:new 0 0 60 60;" xml:space="preserve">
<style type="text/css">
	.st0{fill:#FFFFFF;}
</style>
<g>
	<g>
		<path class="st0" d="M12.2,44.4c-5.4,0-9.7-4.4-9.7-9.7c0-3.2,1.6-6.2,4.2-8c-0.2-0.8-0.2-1.6-0.2-2.4c0-6.3,4.8-11.6,10.9-12.3
			c2-5.5,7.2-9.2,13.2-9.2C37,2.8,42.5,7.1,44,13.1c7.7,1.1,13.5,7.7,13.5,15.6c0,7.5-5.3,13.9-12.6,15.4c-0.9,0.2-1.8-0.4-2-1.3
			c-0.2-0.9,0.4-1.8,1.3-2c5.7-1.2,9.9-6.3,9.9-12.2c0-6.5-5.1-12-11.6-12.4l-1.3-0.1L41,14.9C40,9.8,35.7,6.1,30.5,6.1
			c-4.8,0-9,3.3-10.3,7.9l-0.3,1.3h-1.3c-4.9,0.1-8.9,4.1-8.9,9c0,0.9,0.1,1.8,0.4,2.7l0.4,1.4L9.2,29c-2.2,1.1-3.5,3.3-3.5,5.7
			c0,3.5,2.9,6.4,6.4,6.4c0.9,0,1.7,0.8,1.7,1.7S13.1,44.4,12.2,44.4z"/>
	</g>
	<path class="st0" d="M37,43.2c0-0.1,0-0.2,0-0.4c0,0,0,0,0,0c-0.1-0.3-0.2-0.6-0.4-0.8c-0.2-0.2-0.4-0.3-0.6-0.4
		c-0.2-0.1-0.4-0.1-0.7-0.1h-10l9.5-9.5c0.6-0.6,0.6-1.8,0-2.4s-1.8-0.6-2.4,0L20,42c-0.3,0.3-0.5,0.8-0.5,1.2c0,0,0,0,0,0
		c0,0.1,0,0.1,0,0.2c0,0,0,0.1,0,0.1c0,0,0,0.1,0,0.1c0.1,0.3,0.2,0.5,0.4,0.8c0.1,0.1,0.2,0.2,0.3,0.2c0.3,0.2,0.6,0.3,1,0.3h9.9
		l-9.5,9.5c-0.6,0.6-0.6,1.8,0,2.4s1.8,0.6,2.4,0l12.4-12.4C36.8,44.1,37,43.7,37,43.2C37,43.2,37,43.2,37,43.2
		C37,43.2,37,43.2,37,43.2z"/>
</g>
</svg>
