<?xml version="1.0" encoding="utf-8"?>
<!-- Generator: Adobe Illustrator 26.3.1, SVG Export Plug-In . SVG Version: 6.00 Build 0)  -->
<svg version="1.1" id="Layer_1" xmlns="http://www.w3.org/2000/svg" xmlns:xlink="http://www.w3.org/1999/xlink" x="0px" y="0px"
	 width="60px" height="60px" viewBox="0 0 60 60" style="enable-background:new 0 0 60 60;" xml:space="preserve">
<style type="text/css">
	.st0{fill:#E3EEF9;}
	.st1{fill:#3A4856;}
</style>
<circle class="st0" cx="23.7" cy="30" r="18.8"/>
<path class="st1" d="M58.1,24.1c-1-1.3-2.3-2.3-3.7-2.9c0.2-0.8,0.3-1.7,0.3-2.6c0-6.7-5.5-12.2-12.2-12.2c-2.3,0-4.6,0.7-6.5,1.9
	c-1.1-1.9-2.7-3.4-4.5-4.6c-2.3-1.5-4.9-2.2-7.6-2.2C16.2,1.5,10,7.3,9.5,14.8C4,16,0,21,0,26.7c0,6.7,5.5,12.2,12.3,12.2h10.1
	L21,42.5c-0.1,0.3-0.1,0.7,0.1,1S21.7,44,22,44h3.7L21,57c-0.2,0.5,0,1,0.4,1.3c0.2,0.1,0.4,0.2,0.6,0.2c0.3,0,0.5-0.1,0.8-0.3
	l15.8-14.6c0.3-0.3,0.5-0.8,0.3-1.2s-0.6-0.7-1-0.7h-3.7l1-2.8h15.4c5.1,0,9.3-4.1,9.3-9.2C60,27.6,59.4,25.7,58.1,24.1z M35,44
	l-10.3,9.5l3.7-10.2c0.1-0.3,0.1-0.7-0.1-1s-0.6-0.5-0.9-0.5h-3.7l1.2-3.3c0-0.1,0.1-0.1,0.1-0.2l3.1-8.6h8.1l-4.7,12.9
	c-0.1,0.3-0.1,0.7,0.1,1s0.6,0.5,0.9,0.5C32.6,44,35,44,35,44z M50.7,36.7H36.1l2.9-7.8c0,0,0,0,0-0.1c0,0,0,0,0-0.1c0,0,0,0,0-0.1
	c0,0,0,0,0-0.1c0,0,0,0,0-0.1c0,0,0,0,0-0.1c0,0,0,0,0-0.1c0,0,0,0,0-0.1c0,0,0,0,0-0.1c0,0,0,0,0-0.1c0,0,0,0,0-0.1c0,0,0,0,0-0.1
	c0,0,0,0,0-0.1c0,0,0,0,0-0.1c0,0,0,0,0-0.1c0,0,0,0,0-0.1l0,0l0,0l0,0c0,0,0,0,0-0.1l0,0c0,0,0,0-0.1-0.1l0,0c0,0,0,0-0.1,0l0,0
	c0,0,0,0-0.1,0c0,0,0,0-0.1,0c0,0,0,0-0.1,0c0,0,0,0-0.1,0c0,0,0,0-0.1,0h-0.1c0,0,0,0-0.1,0H38H27.4h-0.1l0,0h-0.1l0,0
	c0,0,0,0-0.1,0l0,0l0,0l0,0l0,0l0,0l0,0l0,0l0,0l0,0l0,0l0,0l0,0l0,0l0,0l0,0l0,0l0,0l0,0l0,0l0,0l0,0l0,0l0,0l0,0l0,0l0,0l0,0l0,0
	l0,0l-3.2,8.6H12.3c-5.5,0-10-4.5-10-10c0-4.9,3.7-9.2,8.5-9.9c0.6-0.1,1-0.6,1-1.1v-0.1c0-6.6,5.4-11.9,12-11.9
	c2.3,0,4.5,0.6,6.4,1.9c1.9,1.2,3.4,2.9,4.3,4.9c0.2,0.3,0.4,0.5,0.8,0.6c0.3,0.1,0.7,0,1-0.2c1.8-1.4,3.9-2.2,6.2-2.2
	c5.5,0,10,4.5,10,10c0,1-0.1,2-0.4,2.9c-0.1,0.3-0.1,0.6,0.1,0.9s0.4,0.5,0.7,0.5c2.9,0.9,5,3.6,5,6.7
	C57.7,33.5,54.6,36.7,50.7,36.7z"/>
</svg>
