<?xml version="1.0" encoding="utf-8"?>
<!-- Generator: Adobe Illustrator 26.3.1, SVG Export Plug-In . SVG Version: 6.00 Build 0)  -->
<svg version="1.1" id="Layer_1" xmlns="http://www.w3.org/2000/svg" xmlns:xlink="http://www.w3.org/1999/xlink" x="0px" y="0px"
	 width="60px" height="60px" viewBox="0 0 60 60" style="enable-background:new 0 0 60 60;" xml:space="preserve">
<style type="text/css">
	.st0{fill:#FFFFFF;}
</style>
<g>
	<g>
		<path class="st0" d="M48.8,57.5c-3.7,0-6.9-2.3-7.9-5.8c-0.3-0.9,0.2-1.8,1.1-2.1c0.9-0.3,1.8,0.2,2.1,1.1
			c0.7,2.1,2.5,3.5,4.7,3.5c2.7,0,4.9-2.2,4.9-4.9c0-2.7-2.2-4.9-4.9-4.9l-36.2,0c-5.4,0-9.7-4.4-9.7-9.7c0-3.2,1.6-6.2,4.2-8
			c-0.2-0.8-0.2-1.6-0.2-2.4c0-6.3,4.8-11.6,11-12.3c2-5.5,7.3-9.2,13.2-9.2c6.4,0,11.9,4.3,13.5,10.3c1.8,0.3,3.6,0.8,5.2,1.7
			c0.8,0.4,1.1,1.5,0.7,2.3C50,17.7,49,18,48.1,17.5c-1.6-0.9-3.3-1.4-5.1-1.5L41.7,16l-0.2-1.3C40.6,9.6,36.1,5.9,31,5.9
			c-4.8,0-9,3.2-10.3,7.9L20.4,15l-1.3,0c-4.9,0.1-8.9,4.1-8.9,9c0,0.9,0.1,1.8,0.4,2.7l0.4,1.4l-1.3,0.6c-2.2,1.1-3.5,3.3-3.5,5.7
			c0,3.5,2.8,6.3,6.3,6.3l36.2,0c4.6,0,8.3,3.7,8.3,8.3S53.4,57.5,48.8,57.5z"/>
	</g>
	<path class="st0" d="M49.6,21.4c-3.4,0-6.4,2.3-7.3,5.6c-0.2,0.9,0.3,1.8,1.2,2.1c0.9,0.2,1.8-0.3,2.1-1.2c0.5-1.8,2.1-3.1,4-3.1
		c2.3,0,4.1,1.9,4.1,4.1c0,2.3-1.9,4.1-4.1,4.1c-0.1,0-0.1,0-0.2,0c-0.1,0-0.1,0-0.2,0H31.8c-0.9,0-1.7,0.8-1.7,1.7
		c0,0.9,0.8,1.7,1.7,1.7h17.5c0.1,0,0.1,0,0.2,0c0.1,0,0.1,0,0.2,0c4.2,0,7.5-3.4,7.5-7.5C57.1,24.7,53.7,21.4,49.6,21.4z"/>
</g>
</svg>
