<?xml version="1.0" encoding="utf-8"?>
<!-- Generator: Adobe Illustrator 26.3.1, SVG Export Plug-In . SVG Version: 6.00 Build 0)  -->
<svg version="1.1" id="Layer_1" xmlns="http://www.w3.org/2000/svg" xmlns:xlink="http://www.w3.org/1999/xlink" x="0px" y="0px"
	 width="60px" height="60px" viewBox="0 0 60 60" style="enable-background:new 0 0 60 60;" xml:space="preserve">
<style type="text/css">
	.st0{fill:#E3EEF9;}
	.st1{fill:#3A4856;}
</style>
<circle class="st0" cx="41.2" cy="30" r="18.8"/>
<g>
	<path class="st1" d="M55.5,36.7c0.1-0.7,0.2-1.4,0.2-2c0-5.7-4.6-10.4-10.3-10.4c-0.2,0-0.4,0-0.6,0c-0.3-1.8-1.2-3.4-2.5-4.7
		s-3-2.2-4.9-2.5c-0.8-5.4-5.6-9.3-11-8.9c-2,0.1-3.9,0.8-5.5,2c-1.2,0.9-2.3,2.1-3,3.5c-1.5-0.8-3.1-1.1-4.8-1
		c-5,0.3-8.7,4.6-8.4,9.6c0,0.6,0.1,1.2,0.3,1.7c-2.3,1.3-3.7,3.8-3.5,6.5c0.1,1.8,0.9,3.5,2.3,4.7c1.4,1.3,3.2,1.9,5,1.8l2.2-0.2
		c-0.7,1.4-1.1,3-1.1,4.6c0,0.6,0.5,1.1,1.1,1.1s1.1-0.5,1.1-1.1c0-2,0.7-3.9,2-5.3c1.3-1.5,3-2.4,4.9-2.7c0.6-0.1,1-0.6,1-1.1
		c0,0,0,0,0-0.1c0-5.4,4.4-9.7,9.7-9.7c3.8,0,7.1,2.1,8.8,5.5c0.2,0.3,0.4,0.5,0.8,0.6s0.7,0,1-0.2c1.4-1.2,3.2-1.8,5-1.8
		c4.5,0,8.1,3.6,8.1,8.1c0,0.8-0.1,1.6-0.4,2.4c-0.1,0.3-0.1,0.6,0.1,0.9s0.4,0.5,0.7,0.5c2.4,0.7,3.9,2.9,3.9,5.4
		c0,1.5-0.6,2.9-1.6,4s-2.4,1.6-3.9,1.6h-45c-0.6,0-1.1,0.5-1.1,1.1s0.5,1.1,1.1,1.1h45c2.1,0,4.1-0.8,5.5-2.3
		C59.2,48,60,46,60,43.9C60,40.7,58.2,38,55.5,36.7z M40,25.8c-0.9-1.5-2.2-2.8-3.7-3.7c-1.9-1.2-4.2-1.9-6.4-1.9
		c-6.3,0-11.5,4.9-12,11.1c-2.1,0.5-4,1.6-5.4,3.3c-0.1,0.1-0.1,0.1-0.1,0.2L8.7,35c-1.3,0.1-2.5-0.3-3.5-1.2s-1.5-2.1-1.6-3.4
		c-0.1-2.2,1.1-4.2,3.1-4.9c0.2-0.1,0.4-0.3,0.5-0.5s0.1-0.5,0-0.8c-0.3-0.7-0.4-1.4-0.5-2.1c-0.3-3.9,2.7-7.3,6.5-7.5
		c1.6-0.1,3.2,0.3,4.5,1.2c0.2,0.2,0.6,0.2,0.8,0.1c0.3-0.1,0.5-0.3,0.6-0.6c1.2-3,4-5.1,7.3-5.3c4.7-0.3,8.7,3.2,9,7.9
		c0,0,0,0,0,0.1c0,0.5,0.4,0.9,0.9,0.9c1.7,0.1,3.3,0.8,4.4,2c1,1,1.6,2.2,1.9,3.6C41.8,24.9,40.8,25.3,40,25.8z"/>
	<path class="st1" d="M28.3,45.8c0-0.6-0.5-1.1-1.1-1.1H1.1c-0.6,0-1.1,0.5-1.1,1.1s0.5,1.1,1.1,1.1h26.1
		C27.8,46.9,28.3,46.4,28.3,45.8z"/>
	<path class="st1" d="M31.8,41.8c0.6,0,1.1-0.5,1.1-1.1s-0.5-1.1-1.1-1.1H16.4c-0.6,0-1.1,0.5-1.1,1.1s0.5,1.1,1.1,1.1H31.8z"/>
</g>
</svg>
